<svg width="218" height="39" viewBox="0 0 218 39" fill="none" xmlns="http://www.w3.org/2000/svg">
<path d="M53.5547 25.1523V28H43.3506V25.1523H53.5547ZM44.458 8.80469V28H40.8325V8.80469H44.458ZM52.2231 16.728V19.5098H43.3506V16.728H52.2231ZM53.5151 8.80469V11.6655H43.3506V8.80469H53.5151ZM56.0728 8.80469H63.0469C64.5059 8.80469 65.7583 9.02441 66.8042 9.46387C67.8501 9.90332 68.6543 10.5537 69.2168 11.415C69.7793 12.2764 70.0605 13.3354 70.0605 14.5923C70.0605 15.5854 69.8848 16.4468 69.5332 17.1763C69.1816 17.9058 68.6851 18.5166 68.0435 19.0088C67.4106 19.501 66.6636 19.8877 65.8022 20.1689L64.6685 20.749H58.5117L58.4854 17.8882H63.0864C63.8335 17.8882 64.4531 17.7563 64.9453 17.4927C65.4375 17.229 65.8066 16.8643 66.0527 16.3984C66.3076 15.9326 66.4351 15.4009 66.4351 14.8032C66.4351 14.1616 66.312 13.6079 66.0659 13.1421C65.8198 12.6675 65.4463 12.3027 64.9453 12.0479C64.4443 11.793 63.8115 11.6655 63.0469 11.6655H59.6982V28H56.0728V8.80469ZM66.9097 28L62.4668 19.4043L66.3032 19.3911L70.7988 27.8154V28H66.9097ZM74.8198 8.80469H77.9575L83.2046 23.2539L88.4385 8.80469H91.5894L84.457 28H81.939L74.8198 8.80469ZM73.2378 8.80469H76.3096L76.8633 22.0806V28H73.2378V8.80469ZM90.0864 8.80469H93.1714V28H89.5459V22.0806L90.0864 8.80469ZM104.733 11.7183L99.2622 28H95.4258L102.598 8.80469H105.05L104.733 11.7183ZM109.308 28L103.811 11.7183L103.481 8.80469H105.946L113.158 28H109.308ZM109.058 20.8677V23.7285H98.7612V20.8677H109.058ZM130.56 8.80469V28H126.921L118.761 14.6846V28H115.135V8.80469H118.761L126.948 22.1333V8.80469H130.56ZM135.306 8.80469H136.427L144.021 26.4707L151.614 8.80469H152.735L144.429 28H143.599L135.306 8.80469ZM134.977 8.80469H135.979L136.044 19.0747V28H134.977V8.80469ZM152.089 8.80469H153.091V28H152.023V19.0747L152.089 8.80469ZM169.992 27.0244V28H158.799V27.0244H169.992ZM159.274 8.80469V28H158.206V8.80469H159.274ZM168.647 17.6245V18.6133H158.799V17.6245H168.647ZM169.966 8.80469V9.78027H158.799V8.80469H169.966ZM173.525 8.80469H179.682C180.948 8.80469 182.06 9.02002 183.018 9.45068C183.976 9.88135 184.723 10.5098 185.259 11.3359C185.804 12.1621 186.076 13.1772 186.076 14.3813C186.076 15.3042 185.878 16.1392 185.483 16.8862C185.087 17.6333 184.551 18.2529 183.875 18.7451C183.198 19.2285 182.433 19.5449 181.581 19.6943L181.119 19.8657H174.04L174.013 18.8901H180.223C181.286 18.8901 182.169 18.6748 182.873 18.2441C183.584 17.8135 184.116 17.2554 184.468 16.5698C184.828 15.8755 185.008 15.146 185.008 14.3813C185.008 13.4233 184.793 12.606 184.362 11.9292C183.94 11.2437 183.33 10.7163 182.53 10.3472C181.739 9.96924 180.79 9.78027 179.682 9.78027H174.593V28H173.525V8.80469ZM185.747 28L180.605 19.4834L181.792 19.4702L186.88 27.8154V28H185.747ZM202.846 27.0244V28H191.653V27.0244H202.846ZM192.127 8.80469V28H191.06V8.80469H192.127ZM201.501 17.6245V18.6133H191.653V17.6245H201.501ZM202.819 8.80469V9.78027H191.653V8.80469H202.819ZM217.216 27.0244V28H207.038V27.0244H217.216ZM207.513 8.80469V28H206.432V8.80469H207.513Z" fill="#001F3F"/>
<g clip-path="url(#clip0_2210_2)">
<mask id="mask0_2210_2" style="mask-type:luminance" maskUnits="userSpaceOnUse" x="4" y="0" width="39" height="39">
<path d="M43 0H4V39H43V0Z" fill="white"/>
</mask>
<g mask="url(#mask0_2210_2)">
<path fill-rule="evenodd" clip-rule="evenodd" d="M10.0725 30.0651H7.32299H4.57349V2.5155H7.32299H10.0647L10.0686 2.5116L10.0725 2.5155V2.5194L24.9003 17.3355L22.9542 19.2816L21.0081 21.2277L20.9925 21.2121L19.5963 22.6161V19.8159L10.0725 10.2999V30.0651ZM19.5963 37.1631V30.42L25.0992 24.8859V31.9137L19.5963 37.1631Z" fill="#001F3F"/>
<path fill-rule="evenodd" clip-rule="evenodd" d="M26.823 15.3544H26.8269L26.823 15.3505L38.1369 4.02103V4.02493V11.8093L31.776 18.178L26.8191 23.2363L26.823 15.3544Z" fill="#001F3F"/>
<path fill-rule="evenodd" clip-rule="evenodd" d="M26.823 15.3544H26.8269L26.823 15.3505L38.1369 4.02103V4.02493V11.8093L31.776 18.178L26.8191 23.2363L26.823 15.3544Z" stroke="#001F3F" stroke-width="1.06666" stroke-linejoin="round"/>
</g>
</g>
<defs>
<clipPath id="clip0_2210_2">
<rect width="39" height="39" fill="white"/>
</clipPath>
</defs>
</svg>
